<svg id="visual" viewBox="0 0 1920 1080" width="1920" height="1080" xmlns="http://www.w3.org/2000/svg" xmlns:xlink="http://www.w3.org/1999/xlink" version="1.1"><path d="M0 509L40 465.7C80 422.3 160 335.7 240 314C320 292.3 400 335.7 480 357.3C560 379 640 379 720 368.2C800 357.3 880 335.7 960 353.7C1040 371.7 1120 429.3 1200 420.3C1280 411.3 1360 335.7 1440 294.3C1520 253 1600 246 1680 282C1760 318 1840 397 1880 436.5L1920 476L1920 0L1880 0C1840 0 1760 0 1680 0C1600 0 1520 0 1440 0C1360 0 1280 0 1200 0C1120 0 1040 0 960 0C880 0 800 0 720 0C640 0 560 0 480 0C400 0 320 0 240 0C160 0 80 0 40 0L0 0Z" fill="#6198ff"></path><path d="M0 757L40 748C80 739 160 721 240 704.8C320 688.7 400 674.3 480 661.7C560 649 640 638 720 638C800 638 880 649 960 677.8C1040 706.7 1120 753.3 1200 769.5C1280 785.7 1360 771.3 1440 744.3C1520 717.3 1600 677.7 1680 666.8C1760 656 1840 674 1880 683L1920 692L1920 474L1880 434.5C1840 395 1760 316 1680 280C1600 244 1520 251 1440 292.3C1360 333.7 1280 409.3 1200 418.3C1120 427.3 1040 369.7 960 351.7C880 333.7 800 355.3 720 366.2C640 377 560 377 480 355.3C400 333.7 320 290.3 240 312C160 333.7 80 420.3 40 463.7L0 507Z" fill="#2d77ff"></path><path d="M0 930L40 915.5C80 901 160 872 240 850.3C320 828.7 400 814.3 480 816.2C560 818 640 836 720 845C800 854 880 854 960 863C1040 872 1120 890 1200 890C1280 890 1360 872 1440 852.2C1520 832.3 1600 810.7 1680 807.2C1760 803.7 1840 818.3 1880 825.7L1920 833L1920 690L1880 681C1840 672 1760 654 1680 664.8C1600 675.7 1520 715.3 1440 742.3C1360 769.3 1280 783.7 1200 767.5C1120 751.3 1040 704.7 960 675.8C880 647 800 636 720 636C640 636 560 647 480 659.7C400 672.3 320 686.7 240 702.8C160 719 80 737 40 746L0 755Z" fill="#005de8"></path><path d="M0 1081L40 1081C80 1081 160 1081 240 1081C320 1081 400 1081 480 1081C560 1081 640 1081 720 1081C800 1081 880 1081 960 1081C1040 1081 1120 1081 1200 1081C1280 1081 1360 1081 1440 1081C1520 1081 1600 1081 1680 1081C1760 1081 1840 1081 1880 1081L1920 1081L1920 831L1880 823.7C1840 816.3 1760 801.7 1680 805.2C1600 808.7 1520 830.3 1440 850.2C1360 870 1280 888 1200 888C1120 888 1040 870 960 861C880 852 800 852 720 843C640 834 560 816 480 814.2C400 812.3 320 826.7 240 848.3C160 870 80 899 40 913.5L0 928Z" fill="#004cbb"></path></svg>