<svg id="Layer_1" data-name="Layer 1" xmlns="http://www.w3.org/2000/svg" viewBox="0 0 400 300" width="406" height="306" class="illustration styles_illustrationTablet__1DWOa"><title>_</title><ellipse cx="205.66" cy="255.47" rx="107.23" ry="22.21" fill="#e6e6e6" opacity="0.45"></ellipse><path d="M178.59,224.54s-28.08,1.93-48.82-13.9-26.28-43.41-26.28-43.41,28.07-1.93,48.81,13.9S178.59,224.54,178.59,224.54Z" fill="#24285b"></path><path d="M180.33,232.24s-23.87,14.91-49.61,10.69S87.1,217,87.1,217s23.87-14.9,49.61-10.69S180.33,232.24,180.33,232.24Z" fill="#24285b"></path><path d="M274,111V231.52a23.93,23.93,0,0,1-23.95,23.95h-86.9a24,24,0,0,1-23.95-23.95V111a24,24,0,0,1,23.95-24h86.9A24,24,0,0,1,274,111Z" fill="#e6e6e6"></path><rect x="159.36" y="65.51" width="94.52" height="21.54" fill="#e6e6e6"></rect><path d="M263.32,220.74l-2.54-5.44,36.29-17a14.91,14.91,0,0,0,8.57-13.47V134.45a14.89,14.89,0,0,0-14.87-14.87H262.05v-6h28.72a20.89,20.89,0,0,1,20.87,20.87v50.41a21,21,0,0,1-12,18.91Z" fill="#e6e6e6"></path><path d="M148.3,135v90.21a24.17,24.17,0,0,0,24.17,24.17h66.39A24.17,24.17,0,0,0,263,225.17V135Z" fill="#2475e1"></path><rect x="175.88" y="21.81" width="9.43" height="219.33" transform="matrix(0.99, -0.15, 0.15, 0.99, -17.51, 28.26)" fill="#24285b"></rect><circle cx="233.68" cy="181.68" r="25.78" fill="#ffd200"></circle><path d="M221.43,195.09l11.85-12.88,8.23,16a17.74,17.74,0,0,1-20.08-3.09Z" fill="#fff" opacity="0.44"></path><path d="M246,169l-12.74,12-8.52-14.59A17.71,17.71,0,0,1,246,169Z" fill="#fff" opacity="0.44"></path><path d="M231.4,181.6c0-.18,0-.36.07-.54h0v0l-12.9-10.66a17.75,17.75,0,0,0-1.34,20.71l14.19-9.41A.36.36,0,0,1,231.4,181.6Z" fill="#fff" opacity="0.44"></path><path d="M250.28,174.4l-15.83,6.79c0,.18,0,.36-.07.54a1.94,1.94,0,0,0,0,.24.6.6,0,0,1-.06.19l12.54,12.37A17.58,17.58,0,0,0,252,182.05,17.8,17.8,0,0,0,250.28,174.4Z" fill="#fff" opacity="0.44"></path><circle cx="179.89" cy="150.88" r="28.68" fill="#ffd200"></circle><path d="M166.27,165.79l13.18-14.33,9.16,17.77a19.71,19.71,0,0,1-22.34-3.44Z" fill="#fff" opacity="0.44"></path><path d="M193.6,136.72l-14.17,13.37L170,133.86a19.71,19.71,0,0,1,23.65,2.86Z" fill="#fff" opacity="0.44"></path><path d="M177.36,150.79c0-.2,0-.4.08-.6h0v0l-14.34-11.86a19.71,19.71,0,0,0-1.49,23l15.78-10.46S177.35,150.82,177.36,150.79Z" fill="#fff" opacity="0.44"></path><path d="M198.36,142.78l-17.61,7.55c0,.2,0,.4-.07.6l0,.26a.79.79,0,0,1-.06.22l13.95,13.77a19.73,19.73,0,0,0,3.82-22.4Z" fill="#fff" opacity="0.44"></path><rect x="160.3" y="217.36" width="27.18" height="27.18" rx="4.8" transform="translate(99.17 -48.32) rotate(22)" fill="#fff" opacity="0.44"></rect><rect x="180" y="187.16" width="27.18" height="27.18" rx="4.8" transform="translate(-31.42 35.98) rotate(-9.82)" fill="#fff" opacity="0.44"></rect><rect x="219.03" y="120.37" width="27.18" height="27.18" rx="4.8" transform="translate(67.12 -77.38) rotate(22)" fill="#fff" opacity="0.44"></rect><rect x="219.03" y="217.36" width="27.18" height="27.18" rx="4.8" transform="translate(-60.34 83.89) rotate(-18.14)" fill="#fff" opacity="0.44"></rect><path d="M273.15,237.93a24,24,0,0,1-23.08,17.54H209a22.42,22.42,0,0,1-4.86-9.07c-3.13-.52-5.45-2.49-5.45-4.83s2.32-4.3,5.45-4.83c3.06-12,17.28-21.08,34.37-21.08C256.16,215.66,270.76,225.34,273.15,237.93Z" opacity="0.09"></path><path d="M279.91,250.66s11.84-.45,14-5,1.62-13.24,1.62-13.24l-4.62.44s1.09,8.21-1.87,11.37-12.19,2.67-12.19,2.67l3.05,4.43" fill="#24285b"></path><path d="M248.42,222c-17.09,0-31.31,9.08-34.36,21.08-3.14.53-5.46,2.49-5.46,4.84s2.32,4.3,5.46,4.83c3.05,12,17.27,21.08,34.36,21.08,19.32,0,35-11.6,35-25.91S267.74,222,248.42,222Z" fill="#ffd200"></path><path d="M292.86,245.52s9.23-5.39,16.7,3.77C309.56,249.29,302.69,259.05,292.86,245.52Z" fill="#24285b"></path><path d="M224.72,237.28c-1.23,1.33-2.44,3.13-1.79,4.83a4.27,4.27,0,0,0,1.7,1.9,13.49,13.49,0,0,0,9.41,2,21.51,21.51,0,0,0,9-3.71c5.09-3.45,8-12.89-.25-14.59C236.61,226.4,228.53,233.19,224.72,237.28Z" fill="#fff" opacity="0.44"></path></svg>