<svg xmlns="http://www.w3.org/2000/svg" viewBox="0 0 400 300" width="406" height="306" class="illustration styles_illustrationTablet__1DWOa"><g id="_413_fast_food_outline" data-name="#413_fast_food_outline"><polygon points="234.03 205.06 282.93 205.06 290.19 198.09 226.77 198.09 234.03 205.06" fill="#fff"></polygon><path d="M282.92,206.06H234a1,1,0,0,1-.69-.28l-7.27-7a1,1,0,0,1-.23-1.1,1,1,0,0,1,.93-.63h63.42a1,1,0,0,1,.69,1.73l-7.26,7A1,1,0,0,1,282.92,206.06Zm-48.49-2h48.09l5.18-5H229.25Z" fill="#093f68"></path><rect x="222.5" y="94.54" width="71.95" height="103.55" rx="4.69" fill="#2475e1"></rect><path d="M289.76,199.09H227.2a5.7,5.7,0,0,1-5.7-5.69V99.24a5.71,5.71,0,0,1,5.7-5.7h62.56a5.7,5.7,0,0,1,5.69,5.7V193.4A5.69,5.69,0,0,1,289.76,199.09ZM227.2,95.54a3.7,3.7,0,0,0-3.7,3.7V193.4a3.7,3.7,0,0,0,3.7,3.69h62.56a3.69,3.69,0,0,0,3.69-3.69V99.24a3.7,3.7,0,0,0-3.69-3.7Z" fill="#093f68"></path><path d="M258.48,167.93a23,23,0,1,1,23-23A23,23,0,0,1,258.48,167.93Zm0-44a21,21,0,1,0,21,21A21,21,0,0,0,258.48,123.93Z" fill="#093f68"></path><polygon points="234.03 87.58 282.93 87.58 290.19 94.54 226.77 94.54 234.03 87.58" fill="#fff"></polygon><path d="M290.19,95.54H226.77a1,1,0,0,1-.93-.62,1,1,0,0,1,.23-1.1l7.27-7a1,1,0,0,1,.69-.28h48.89a1,1,0,0,1,.7.28l7.26,7a1,1,0,0,1,.24,1.1A1,1,0,0,1,290.19,95.54Zm-60.94-2H287.7l-5.18-5H234.43Z" fill="#093f68"></path><rect x="148.78" y="93.81" width="11.18" height="48.97" transform="translate(-0.4 0.52) rotate(-0.19)" fill="#ffbc0e"></rect><path d="M148.86,143.79a1,1,0,0,1-1-1l-.16-49a1,1,0,0,1,.29-.71,1,1,0,0,1,.7-.3l11.19,0a1,1,0,0,1,1,1l.16,49a1,1,0,0,1-.29.71,1,1,0,0,1-.7.29l-11.19,0Zm.84-49,.16,47,9.18,0-.16-47Z" fill="#093f68"></path><rect x="143.78" y="102.09" width="11.18" height="48.97" transform="translate(-12.59 16.57) rotate(-6.09)" fill="#ffbc0e"></rect><path d="M146.4,152.51a1,1,0,0,1-1-.89l-5.2-48.69a1,1,0,0,1,.89-1.1l11.12-1.19a1,1,0,0,1,.74.22,1,1,0,0,1,.36.67l5.2,48.69a1,1,0,0,1-.89,1.1l-11.12,1.19Zm-4.09-48.8,5,46.7,9.13-1-5-46.7Z" fill="#093f68"></path><rect x="128.91" y="97.03" width="11.18" height="48.97" transform="translate(-12.14 14.96) rotate(-6.09)" fill="#ffbc0e"></rect><path d="M131.54,147.45a1,1,0,0,1-1-.89l-5.2-48.69a1,1,0,0,1,.89-1.1l11.12-1.19a1,1,0,0,1,.73.22,1,1,0,0,1,.37.67l5.19,48.69a1,1,0,0,1-.21.74,1,1,0,0,1-.67.36l-11.12,1.19Zm-4.1-48.8,5,46.7,9.13-1-5-46.7Z" fill="#093f68"></path><rect x="162.07" y="97.03" width="11.18" height="48.97" transform="translate(13.43 -16.65) rotate(5.92)" fill="#ffbc0e"></rect><path d="M170.7,147.45h-.1l-11.12-1.15a1,1,0,0,1-.9-1.1l5.06-48.71a1,1,0,0,1,.36-.67,1,1,0,0,1,.73-.22l11.13,1.16a1,1,0,0,1,.89,1.09l-5.05,48.71a1,1,0,0,1-.37.67A1,1,0,0,1,170.7,147.45Zm-10-3,9.13.95,4.85-46.72-9.14-.95Z" fill="#093f68"></path><rect x="175.68" y="100.89" width="11.18" height="48.97" transform="translate(13.9 -18.03) rotate(5.92)" fill="#ffbc0e"></rect><path d="M184.31,151.3h-.11l-11.12-1.15a1,1,0,0,1-.89-1.1l5.05-48.71a1,1,0,0,1,.36-.67,1,1,0,0,1,.74-.22l11.12,1.15a1,1,0,0,1,.89,1.1l-5,48.71a1,1,0,0,1-.36.67A1,1,0,0,1,184.31,151.3Zm-10-3,9.14,1,4.84-46.72-9.13-.95Z" fill="#093f68"></path><rect x="138.59" y="118.58" width="11.18" height="48.97" transform="translate(-17.43 20.03) rotate(-7.5)" fill="#ffbc0e"></rect><path d="M141.83,169.07a1,1,0,0,1-1-.87l-6.38-48.55a1,1,0,0,1,.19-.74,1,1,0,0,1,.67-.38l11.08-1.46a1,1,0,0,1,.74.19,1.05,1.05,0,0,1,.39.67l6.39,48.55a1,1,0,0,1-.87,1.12L142,169.06Zm-5.26-48.69,6.13,46.56,9.1-1.19-6.13-46.57Z" fill="#093f68"></path><rect x="116.75" y="108.08" width="11.18" height="48.97" transform="translate(-19.97 21.72) rotate(-9.38)" fill="#ffbc0e"></rect><path d="M120.82,158.63a1,1,0,0,1-1-.84l-8-48.31a1,1,0,0,1,.82-1.15l11-1.82a1.05,1.05,0,0,1,.75.17,1,1,0,0,1,.4.65l8,48.32a1,1,0,0,1-.18.74,1,1,0,0,1-.65.41l-11,1.82ZM114,110.14l7.66,46.34L130.7,155,123,108.65Z" fill="#093f68"></path><rect x="152.04" y="110.33" width="11.18" height="48.97" fill="#ffbc0e"></rect><path d="M163.22,160.29H152a1,1,0,0,1-1-1v-49a1,1,0,0,1,1-1h11.18a1,1,0,0,1,1,1v49A1,1,0,0,1,163.22,160.29Zm-10.18-2h9.18v-47H153Z" fill="#093f68"></path><rect x="166.2" y="113.08" width="11.18" height="48.97" transform="translate(14.7 -16.57) rotate(5.77)" fill="#ffbc0e"></rect><path d="M174.9,163.48h-.11l-11.12-1.13A1,1,0,0,1,163,162a1.06,1.06,0,0,1-.22-.73l4.93-48.72a1,1,0,0,1,1.09-.9l11.13,1.13a1,1,0,0,1,.89,1.09l-4.92,48.72A1,1,0,0,1,174.9,163.48Zm-10-3,9.14.93,4.72-46.73-9.14-.93Z" fill="#093f68"></path><rect x="188.8" y="107.31" width="11.18" height="48.97" transform="translate(20.99 -26.61) rotate(8.27)" fill="#ffbc0e"></rect><path d="M196.4,157.82h-.14l-11.07-1.61a1,1,0,0,1-.66-.39,1,1,0,0,1-.18-.74l7-48.46a1,1,0,0,1,1.14-.84l11.06,1.61a1,1,0,0,1,.66.39,1,1,0,0,1,.19.74L197.39,157A1,1,0,0,1,196.4,157.82Zm-9.93-3.45,9.09,1.32,6.76-46.48-9.09-1.32Z" fill="#093f68"></path><path d="M189.6,120.12a34.6,34.6,0,0,1-64.84,0h-16l7.1,84.94h82.56l7.1-84.94Z" fill="#2475e1"></path><path d="M198.46,206.06H115.9a1,1,0,0,1-1-.92l-7.09-84.94a1,1,0,0,1,.26-.76,1,1,0,0,1,.73-.32h16a1,1,0,0,1,.94.65,33.59,33.59,0,0,0,63,0,1,1,0,0,1,.94-.65h16a1,1,0,0,1,.73.32,1,1,0,0,1,.26.76l-7.09,84.94A1,1,0,0,1,198.46,206.06Zm-81.64-2h80.72l6.93-82.94H190.29a35.6,35.6,0,0,1-66.22,0H109.89Z" fill="#093f68"></path><rect x="144.96" y="152.41" width="136.84" height="34.56" rx="17.28" fill="#ffbc0e"></rect><path d="M264.52,188H162.25a18.29,18.29,0,1,1,0-36.57H264.52a18.29,18.29,0,0,1,0,36.57ZM162.25,153.41a16.29,16.29,0,1,0,0,32.57H264.52a16.29,16.29,0,0,0,0-32.57Z" fill="#093f68"></path><rect x="135.67" y="159.67" width="155.42" height="28.11" rx="14.06" fill="#f56132"></rect><path d="M277,188.78H149.73a15.06,15.06,0,1,1,0-30.11H277a15.06,15.06,0,0,1,0,30.11ZM149.73,160.67a13.06,13.06,0,1,0,0,26.11H277a13.06,13.06,0,0,0,0-26.11Z" fill="#093f68"></path><rect x="144.96" y="170.49" width="136.84" height="34.56" rx="17.28" fill="#ffbc0e"></rect><path d="M264.52,206.06H162.25a18.28,18.28,0,1,1,0-36.56H264.52a18.28,18.28,0,1,1,0,36.56ZM162.25,171.5a16.28,16.28,0,1,0,0,32.56H264.52a16.28,16.28,0,1,0,0-32.56Z" fill="#093f68"></path><path d="M215.3,169.07c-3.37,0-6.14-2.08-8.61-3.93-.53-.4-1.06-.79-1.58-1.16a3.46,3.46,0,0,0-2.48-.88,3.25,3.25,0,0,0-1.17.57c-.45.29-.89.6-1.34.91-2.13,1.47-4.33,3-7.17,3.36-4,.53-7.59-1.38-10.78-3.07l-.37-.19a9,9,0,0,0-4.05-1.33h0c-1.8,0-3.31,1-4.9,2.11-.65.44-1.32.89-2,1.29-6.1,3.42-15.51,1.25-18.63-4.28a1,1,0,1,1,1.74-1c2.59,4.59,10.77,6.4,15.92,3.52.62-.35,1.23-.76,1.87-1.19,1.77-1.21,3.6-2.45,6-2.46a10.27,10.27,0,0,1,5,1.56l.36.19c3.07,1.63,6.25,3.3,9.58,2.86,2.37-.31,4.28-1.63,6.3-3l1.38-.94a4.49,4.49,0,0,1,5.9.35c.54.38,1.08.79,1.63,1.2,2.52,1.89,5.13,3.85,8.14,3.48,1.9-.22,3.47-1.32,5.14-2.49,2-1.38,4-2.81,6.72-2.81h0c2.51,0,4.45,1.24,6.34,2.44a22.32,22.32,0,0,0,2.86,1.62,10.49,10.49,0,0,0,8.85-.45,20.16,20.16,0,0,0,2-1.35,11.36,11.36,0,0,1,4.39-2.37c3.32-.74,6.15.9,8.87,2.48,2.24,1.3,4.36,2.53,6.72,2.53H268c2.16,0,4.27-1.33,4.8-3a1,1,0,1,1,1.91.61c-.79,2.46-3.67,4.34-6.69,4.37h-.09c-2.9,0-5.35-1.42-7.72-2.8s-4.87-2.83-7.43-2.26a9.85,9.85,0,0,0-3.62,2,19.47,19.47,0,0,1-2.18,1.5,12.53,12.53,0,0,1-10.62.54,21.93,21.93,0,0,1-3.16-1.76c-1.71-1.1-3.34-2.13-5.26-2.13h0c-2.07,0-3.77,1.19-5.57,2.45s-3.66,2.56-6,2.84A8,8,0,0,1,215.3,169.07Z" fill="#fff"></path><path d="M112.61,186a5.46,5.46,0,0,1,5.37-1.29,14,14,0,0,0,1.83.78,5.68,5.68,0,0,0,3.34-.79,11.25,11.25,0,0,1,6.43-1.08,5.59,5.59,0,0,1,4.58,4.2,6.8,6.8,0,0,1-1.86,5.23,14.59,14.59,0,0,1-21.78.79C108.06,191.3,110.38,188,112.61,186Z" fill="#f56132"></path><path d="M121.09,199.38a15.84,15.84,0,0,1-11.29-4.81,4.48,4.48,0,0,1-1.33-3.4c.12-2.66,2.48-5,3.48-5.88a6.44,6.44,0,0,1,6.39-1.47c.26.1.52.23.78.36a4.09,4.09,0,0,0,.9.37,4.41,4.41,0,0,0,2.49-.62l.24-.1a11.88,11.88,0,0,1,7-1.15,6.56,6.56,0,0,1,5.38,5c.41,2.43-.9,4.62-2.07,6a15.83,15.83,0,0,1-11.45,5.64Zm-4.62-13.91a5.16,5.16,0,0,0-3.2,1.32h0c-1.7,1.49-2.74,3.16-2.8,4.47a2.54,2.54,0,0,0,.77,1.92,13.58,13.58,0,0,0,20.29-.73c.9-1.09,1.92-2.75,1.64-4.43a4.61,4.61,0,0,0-3.78-3.37,10,10,0,0,0-5.84,1l-.23.1a6,6,0,0,1-3.72.74,5.36,5.36,0,0,1-1.37-.54c-.21-.1-.41-.2-.61-.28A3.33,3.33,0,0,0,116.47,185.47Zm-3.86.57h0Z" fill="#093f68"></path><polygon points="105.55 189.59 137.83 189.59 133.45 205.06 109.93 205.06 105.55 189.59" fill="#fff"></polygon><path d="M133.45,206.06H109.93a1,1,0,0,1-1-.73l-4.39-15.47a1,1,0,0,1,.17-.88,1,1,0,0,1,.8-.39h32.28a1,1,0,0,1,1,1.27l-4.38,15.47A1,1,0,0,1,133.45,206.06Zm-22.76-2h22l3.82-13.47H106.87Z" fill="#093f68"></path><rect x="88.98" y="205.06" width="222.05" height="11.36" rx="5.68" fill="#fff"></rect><path d="M305.34,217.42H94.66a6.68,6.68,0,0,1,0-13.36H305.34a6.68,6.68,0,1,1,0,13.36ZM94.66,206.06a4.68,4.68,0,0,0,0,9.36H305.34a4.68,4.68,0,1,0,0-9.36Z" fill="#093f68"></path></g></svg>