<svg xmlns="http://www.w3.org/2000/svg" viewBox="0 0 400 300" width="406" height="306" class="illustration styles_illustrationTablet__1DWOa"><g id="_409_fast_food_outline" data-name="#409_fast_food_outline"><path d="M97.57,202.6H205.13a5.61,5.61,0,0,1,5.61,5.61v1.91a13.58,13.58,0,0,1-13.58,13.58H105.54A13.58,13.58,0,0,1,92,210.12v-1.91A5.61,5.61,0,0,1,97.57,202.6Z" fill="#2475e1"></path><path d="M197.16,224.7H105.54A14.6,14.6,0,0,1,91,210.12v-1.9a6.62,6.62,0,0,1,6.61-6.62H205.13a6.63,6.63,0,0,1,6.61,6.62v1.9A14.6,14.6,0,0,1,197.16,224.7ZM97.57,203.6A4.62,4.62,0,0,0,93,208.22v1.9a12.59,12.59,0,0,0,12.58,12.58h91.62a12.6,12.6,0,0,0,12.58-12.58v-1.9a4.62,4.62,0,0,0-4.61-4.62Z" fill="#093f68"></path><rect x="90.26" y="168.37" width="123.98" height="17.11" rx="8.3" fill="#ad7972"></rect><path d="M205.94,186.49H98.56a9.31,9.31,0,0,1-9.3-9.3v-.52a9.31,9.31,0,0,1,9.3-9.3H205.94a9.31,9.31,0,0,1,9.3,9.3v.52A9.31,9.31,0,0,1,205.94,186.49ZM98.56,169.37a7.31,7.31,0,0,0-7.3,7.3v.52a7.3,7.3,0,0,0,7.3,7.3H205.94a7.3,7.3,0,0,0,7.3-7.3v-.52a7.31,7.31,0,0,0-7.3-7.3Z" fill="#093f68"></path><rect x="90.27" y="185.49" width="123.97" height="17.12" rx="8.3" fill="#ad7972"></rect><path d="M205.94,203.61H98.55a9.3,9.3,0,0,1-9.28-9.3v-.52a9.3,9.3,0,0,1,9.28-9.3H205.94a9.31,9.31,0,0,1,9.3,9.3v.52A9.31,9.31,0,0,1,205.94,203.61ZM98.55,186.49a7.3,7.3,0,0,0-7.28,7.3v.52a7.3,7.3,0,0,0,7.28,7.3H205.94a7.32,7.32,0,0,0,7.3-7.3v-.52a7.31,7.31,0,0,0-7.3-7.3Z" fill="#093f68"></path><path d="M203.85,185.49a9,9,0,0,1-.22,2.69c-1.72,7.48-11.85,11.53-22.63,9-7.78-1.78-13.76-6.47-15.85-11.74Z" fill="#f56132"></path><path d="M187.25,199a29.2,29.2,0,0,1-6.47-.74c-7.91-1.81-14.25-6.54-16.56-12.35a1,1,0,0,1,.11-.93,1,1,0,0,1,.82-.44h38.7a1,1,0,0,1,1,.93,10.11,10.11,0,0,1-.24,3C203.13,194.85,195.91,199,187.25,199Zm-20.52-12.46c2.47,4.52,8,8.28,14.49,9.77,10.23,2.35,19.85-1.38,21.44-8.3a8.24,8.24,0,0,0,.2-1.47Z" fill="#093f68"></path><polygon points="103.33 185.49 124.27 211.36 161.82 185.49 103.33 185.49" fill="#ffbc0e"></polygon><path d="M124.27,212.36a1,1,0,0,1-.78-.37l-20.94-25.87a1,1,0,0,1-.12-1.06,1,1,0,0,1,.9-.57h58.49a1,1,0,0,1,.56,1.82l-37.54,25.88A1,1,0,0,1,124.27,212.36Zm-18.84-25.87,19,23.52,34.14-23.52Z" fill="#093f68"></path><path d="M117.27,177.09a19.5,19.5,0,0,0,34.57.31A9.14,9.14,0,0,0,168,175.84c4.56,2.37,9.63,4.13,14.76,3.72s10.28-3.4,12-8.17c1.75,2.94,6.21,3.54,9.13,1.72s4.36-5.4,4.33-8.81c-.09-9.09-8.83-15.81-17.51-18.86-12.07-4.24-25.24-4.2-38-3.14-15.45,1.28-31.44,4.21-44.86,12.28-5.74,3.45-14.6,8.54-10.68,16.13C100.82,177.7,110.33,181.12,117.27,177.09Z" fill="#70cc40"></path><path d="M134.62,188.72h-.17a20.89,20.89,0,0,1-17.59-10.28,14.75,14.75,0,0,1-10.62.72,16.26,16.26,0,0,1-9.92-8C92.06,162.91,101.41,157.3,107,154l.38-.23c15-9,33-11.4,45.3-12.42,11-.92,25.37-1.38,38.41,3.2,8.33,2.92,18.09,9.86,18.18,19.79,0,4.11-1.8,7.81-4.8,9.67a8.36,8.36,0,0,1-6.27.94,7.1,7.1,0,0,1-3.15-1.64c-2.21,4-6.9,6.87-12.2,7.3-4.37.35-9.08-.75-14.37-3.36a10.13,10.13,0,0,1-16.51,2A21,21,0,0,1,134.62,188.72Zm-17.35-12.63a1.45,1.45,0,0,1,.29,0,1,1,0,0,1,.6.51,18.82,18.82,0,0,0,16.31,10.08h.15A18.82,18.82,0,0,0,151,176.93a1,1,0,0,1,.85-.53,1,1,0,0,1,.88.46,8.33,8.33,0,0,0,7.63,3.68,8.24,8.24,0,0,0,6.76-5.07,1,1,0,0,1,.58-.57,1,1,0,0,1,.81,0c5.33,2.77,10,4,14.22,3.61,5.18-.41,9.68-3.43,11.19-7.52a1,1,0,0,1,1.79-.16,4.72,4.72,0,0,0,3,2.08,6.29,6.29,0,0,0,4.73-.7,9.13,9.13,0,0,0,3.86-7.95c-.08-8.89-9.13-15.21-16.84-17.93-12.69-4.45-26.75-4-37.59-3.09-12.07,1-29.81,3.36-44.43,12.14l-.38.23c-7,4.22-13.06,8.51-9.92,14.59a14.42,14.42,0,0,0,8.7,7,12.64,12.64,0,0,0,10-1A1,1,0,0,1,117.27,176.09Z" fill="#093f68"></path><path d="M97.12,168.37a6.87,6.87,0,0,1-6.66-8.52c5.37-21.84,31-38.38,61.79-38.38S208.67,138,214,159.85a6.87,6.87,0,0,1-6.66,8.52Z" fill="#2475e1"></path><path d="M207.38,169.37H97.12a7.86,7.86,0,0,1-7.63-9.76c5.58-22.68,32-39.15,62.76-39.15s57.18,16.47,62.76,39.15a7.86,7.86,0,0,1-7.63,9.76Zm-55.13-46.91c-29.88,0-55.46,15.83-60.82,37.63a5.85,5.85,0,0,0,1.09,5,5.78,5.78,0,0,0,4.6,2.24H207.38a5.78,5.78,0,0,0,4.6-2.24,5.85,5.85,0,0,0,1.09-5C207.71,138.29,182.13,122.46,152.25,122.46Z" fill="#093f68"></path><path d="M132.57,142.7a1,1,0,0,1-.74-1.67l6.92-7.72a1,1,0,0,1,1.49,1.34l-6.92,7.72A1,1,0,0,1,132.57,142.7Z" fill="#093f68"></path><path d="M173.67,145.92a1,1,0,0,1-.64-.23l-8.52-7.08a1,1,0,0,1,1.28-1.54l8.52,7.08a1,1,0,0,1,.13,1.41A1,1,0,0,1,173.67,145.92Z" fill="#093f68"></path><path d="M142.86,156.16a1,1,0,0,1-.94-.66,1,1,0,0,1,.61-1.28l9.38-3.37a1,1,0,0,1,.68,1.88l-9.39,3.37A1,1,0,0,1,142.86,156.16Z" fill="#093f68"></path><path d="M124.81,161a1,1,0,0,1-.87-.52l-3.61-6.5a1,1,0,0,1,1.75-1l3.61,6.5a1,1,0,0,1-.39,1.36A1,1,0,0,1,124.81,161Z" fill="#093f68"></path><path d="M186.91,154.48a1,1,0,0,1-.58-1.82l6.74-4.81a1,1,0,0,1,1.39.23,1,1,0,0,1-.23,1.4l-6.74,4.81A1,1,0,0,1,186.91,154.48Z" fill="#093f68"></path><path d="M110.37,144.37a1,1,0,0,1-.41-1.91l7.46-3.37a1,1,0,1,1,.82,1.82l-7.46,3.37A1,1,0,0,1,110.37,144.37Z" fill="#093f68"></path><path d="M175.84,159.53h-7.7a1,1,0,0,1,0-2h7.7a1,1,0,0,1,0,2Z" fill="#093f68"></path><path d="M182.83,137a1,1,0,0,1-.51-.14l-7-4.09a1,1,0,0,1-.36-1.37,1,1,0,0,1,1.37-.36l7,4.09a1,1,0,0,1-.5,1.87Z" fill="#093f68"></path><path d="M152.25,135.7a1,1,0,0,1-.32-1.94l6-2a1,1,0,0,1,1.26.62,1,1,0,0,1-.62,1.27l-6,2.05A.86.86,0,0,1,152.25,135.7Z" fill="#093f68"></path><path d="M103.33,157.73a1,1,0,0,1-.9-.58,1,1,0,0,1,.47-1.33l4.56-2.15a1,1,0,0,1,.86,1.81l-4.56,2.15A1,1,0,0,1,103.33,157.73Z" fill="#093f68"></path><path d="M197.38,159.53a1,1,0,0,1-1-.79,1,1,0,0,1,.77-1.19l8.66-1.8a1,1,0,0,1,1.18.77,1,1,0,0,1-.77,1.19l-8.66,1.8Z" fill="#093f68"></path><path d="M152.25,126.51a1,1,0,0,1-1-1V92.56a1,1,0,0,1,2,0v33A1,1,0,0,1,152.25,126.51Z" fill="#093f68"></path><polygon points="152.25 108.24 152.25 96.53 133.48 96.53 152.25 108.24" fill="#2475e1"></polygon><path d="M152.25,109.24a1,1,0,0,1-.53-.16L133,97.38a1,1,0,0,1,.53-1.85h18.77a1,1,0,0,1,1,1v11.71a1,1,0,0,1-.51.87A1.05,1.05,0,0,1,152.25,109.24ZM137,97.53l14.28,8.9v-8.9Z" fill="#093f68"></path><path d="M240.15,111.08a2,2,0,0,1-1.1-.34c-.78-.52-1.45-1-9.55-31.62l-19.08,8.81a2,2,0,0,1-1.67-3.63L230,74.49a2,2,0,0,1,1.69,0,2,2,0,0,1,1.09,1.3c3,11.34,8,29.87,9,32.12a2,2,0,0,1-1.63,3.17Zm1.11-3.67h0Z" fill="#093f68"></path><path d="M217.81,105h86.94a5,5,0,0,1,5,5v10.84a0,0,0,0,1,0,0H212.83a0,0,0,0,1,0,0V110A5,5,0,0,1,217.81,105Z" fill="#fff"></path><path d="M309.74,121.85H212.83a1,1,0,0,1-1-1V110a6,6,0,0,1,6-6h86.94a6,6,0,0,1,6,6v10.83A1,1,0,0,1,309.74,121.85Zm-95.91-2h94.91V110a4,4,0,0,0-4-4H217.81a4,4,0,0,0-4,4Z" fill="#093f68"></path><polygon points="291.55 223.7 231.01 223.7 218.76 120.85 303.81 120.85 291.55 223.7" fill="#2475e1"></polygon><path d="M291.55,224.7H231a1,1,0,0,1-1-.88L217.77,121a1,1,0,0,1,.24-.78,1,1,0,0,1,.75-.34h85.05a1,1,0,0,1,1,1.12L292.55,223.82A1,1,0,0,1,291.55,224.7Zm-59.65-2h58.77l12-100.85H219.89Z" fill="#093f68"></path><path d="M228.69,97.68h65.18a4.14,4.14,0,0,1,4.14,4.14V105a0,0,0,0,1,0,0H224.55a0,0,0,0,1,0,0v-3.2A4.14,4.14,0,0,1,228.69,97.68Z" fill="#fff"></path><path d="M298,106H224.55a1,1,0,0,1-1-1v-3.2a5.15,5.15,0,0,1,5.14-5.15h65.18a5.15,5.15,0,0,1,5.14,5.15V105A1,1,0,0,1,298,106Zm-72.46-2H297v-2.2a3.15,3.15,0,0,0-3.14-3.15H228.69a3.15,3.15,0,0,0-3.14,3.15Z" fill="#093f68"></path><circle cx="261.28" cy="164.05" r="21.13" fill="#fff"></circle><path d="M261.28,186.17a22.13,22.13,0,1,1,22.13-22.12A22.14,22.14,0,0,1,261.28,186.17Zm0-42.25a20.13,20.13,0,1,0,20.13,20.13A20.14,20.14,0,0,0,261.28,143.92Z" fill="#093f68"></path></g></svg>